[{"time":0,"midi":49,"velocity":0.9},{"time":0,"midi":42,"velocity":0.7},{"time":0,"midi":36,"velocity":0.9},{"time":0.3,"midi":42,"velocity":0.5},{"time":0.6,"midi":42,"velocity":0.7},{"time":0.6,"midi":38,"velocity":0.85},{"time":0.8999999999999999,"midi":42,"velocity":0.5},{"time":1.2,"midi":42,"velocity":0.7},{"time":1.2,"midi":36,"velocity":0.85},{"time":1.5,"midi":42,"velocity":0.5},{"time":1.7999999999999998,"midi":42,"velocity":0.7},{"time":1.7999999999999998,"midi":38,"velocity":0.85},{"time":2.1,"midi":42,"velocity":0.5},{"time":2.4,"midi":42,"velocity":0.7},{"time":2.4,"midi":36,"velocity":0.9},{"time":2.6999999999999997,"midi":42,"velocity":0.5},{"time":3,"midi":42,"velocity":0.7},{"time":3,"midi":38,"velocity":0.85},{"time":3.3,"midi":42,"velocity":0.5},{"time":3.5999999999999996,"midi":42,"velocity":0.7},{"time":3.5999999999999996,"midi":36,"velocity":0.85},{"time":3.9,"midi":42,"velocity":0.5},{"time":3.9,"midi":36,"velocity":0.7},{"time":4.199999999999999,"midi":42,"velocity":0.7},{"time":4.199999999999999,"midi":38,"velocity":0.85},{"time":4.5,"midi":42,"velocity":0.5},{"time":4.8,"midi":42,"velocity":0.7},{"time":4.8,"midi":36,"velocity":0.9},{"time":5.1,"midi":42,"velocity":0.5},{"time":5.3999999999999995,"midi":42,"velocity":0.7},{"time":5.3999999999999995,"midi":38,"velocity":0.85},{"time":5.699999999999999,"midi":42,"velocity":0.5},{"time":6,"midi":42,"velocity":0.7},{"time":6,"midi":36,"velocity":0.85},{"time":6.3,"midi":42,"velocity":0.5},{"time":6.6,"midi":42,"velocity":0.7},{"time":6.6,"midi":38,"velocity":0.85},{"time":6.9,"midi":42,"velocity":0.5},{"time":7.199999999999999,"midi":42,"velocity":0.7},{"time":7.199999999999999,"midi":36,"velocity":0.9},{"time":7.499999999999999,"midi":42,"velocity":0.5},{"time":7.799999999999999,"midi":42,"velocity":0.7},{"time":7.799999999999999,"midi":38,"velocity":0.85},{"time":8.1,"midi":42,"velocity":0.5},{"time":8.399999999999999,"midi":42,"velocity":0.7},{"time":8.399999999999999,"midi":36,"velocity":0.85},{"time":8.7,"midi":42,"velocity":0.5},{"time":8.7,"midi":36,"velocity":0.7},{"time":9,"midi":42,"velocity":0.7},{"time":9,"midi":38,"velocity":0.85},{"time":9.299999999999999,"midi":42,"velocity":0.5},{"time":9.6,"midi":42,"velocity":0.7},{"time":9.6,"midi":36,"velocity":0.9},{"time":9.9,"midi":42,"velocity":0.5},{"time":10.2,"midi":42,"velocity":0.7},{"time":10.2,"midi":38,"velocity":0.85},{"time":10.5,"midi":42,"velocity":0.5},{"time":10.799999999999999,"midi":42,"velocity":0.7},{"time":10.799999999999999,"midi":36,"velocity":0.85},{"time":11.1,"midi":42,"velocity":0.5},{"time":11.399999999999999,"midi":42,"velocity":0.7},{"time":11.399999999999999,"midi":38,"velocity":0.85},{"time":11.7,"midi":42,"velocity":0.5},{"time":12,"midi":42,"velocity":0.7},{"time":12,"midi":36,"velocity":0.9},{"time":12.3,"midi":42,"velocity":0.5},{"time":12.6,"midi":42,"velocity":0.7},{"time":12.6,"midi":38,"velocity":0.85},{"time":12.9,"midi":42,"velocity":0.5},{"time":13.2,"midi":42,"velocity":0.7},{"time":13.2,"midi":36,"velocity":0.85},{"time":13.5,"midi":42,"velocity":0.5},{"time":13.5,"midi":36,"velocity":0.7},{"time":13.8,"midi":42,"velocity":0.7},{"time":13.8,"midi":38,"velocity":0.85},{"time":14.1,"midi":42,"velocity":0.5},{"time":14.399999999999999,"midi":42,"velocity":0.7},{"time":14.399999999999999,"midi":36,"velocity":0.9},{"time":14.7,"midi":42,"velocity":0.5},{"time":14.999999999999998,"midi":42,"velocity":0.7},{"time":14.999999999999998,"midi":38,"velocity":0.85},{"time":15.299999999999999,"midi":42,"velocity":0.5},{"time":15.599999999999998,"midi":42,"velocity":0.7},{"time":15.599999999999998,"midi":36,"velocity":0.85},{"time":15.899999999999999,"midi":42,"velocity":0.5},{"time":16.2,"midi":42,"velocity":0.7},{"time":16.2,"midi":38,"velocity":0.85},{"time":16.5,"midi":42,"velocity":0.5},{"time":16.8,"midi":42,"velocity":0.7},{"time":16.8,"midi":36,"velocity":0.9},{"time":17.1,"midi":42,"velocity":0.5},{"time":17.400000000000002,"midi":42,"velocity":0.7},{"time":17.400000000000002,"midi":38,"velocity":0.85},{"time":17.7,"midi":42,"velocity":0.5},{"time":18,"midi":42,"velocity":0.7},{"time":18,"midi":36,"velocity":0.85},{"time":18.3,"midi":42,"velocity":0.5},{"time":18.3,"midi":36,"velocity":0.7},{"time":18.6,"midi":42,"velocity":0.7},{"time":18.6,"midi":38,"velocity":0.85},{"time":18.900000000000002,"midi":42,"velocity":0.5},{"time":19.2,"midi":49,"velocity":0.95},{"time":19.2,"midi":51,"velocity":0.7},{"time":19.2,"midi":36,"velocity":0.9},{"time":19.5,"midi":51,"velocity":0.5},{"time":19.65,"midi":36,"velocity":0.7},{"time":19.8,"midi":51,"velocity":0.7},{"time":19.8,"midi":38,"velocity":0.85},{"time":20.099999999999998,"midi":51,"velocity":0.5},{"time":20.4,"midi":51,"velocity":0.7},{"time":20.7,"midi":51,"velocity":0.5},{"time":20.7,"midi":36,"velocity":0.85},{"time":21,"midi":51,"velocity":0.7},{"time":21,"midi":38,"velocity":0.85},{"time":21.3,"midi":51,"velocity":0.5},{"time":21.599999999999998,"midi":51,"velocity":0.7},{"time":21.599999999999998,"midi":36,"velocity":0.9},{"time":21.9,"midi":51,"velocity":0.5},{"time":22.049999999999997,"midi":36,"velocity":0.7},{"time":22.2,"midi":51,"velocity":0.7},{"time":22.2,"midi":38,"velocity":0.85},{"time":22.499999999999996,"midi":51,"velocity":0.5},{"time":22.799999999999997,"midi":51,"velocity":0.7},{"time":23.099999999999998,"midi":51,"velocity":0.5},{"time":23.099999999999998,"midi":36,"velocity":0.85},{"time":23.4,"midi":51,"velocity":0.7},{"time":23.4,"midi":38,"velocity":0.85},{"time":23.7,"midi":51,"velocity":0.5},{"time":24,"midi":51,"velocity":0.7},{"time":24,"midi":36,"velocity":0.9},{"time":24.3,"midi":51,"velocity":0.5},{"time":24.45,"midi":36,"velocity":0.7},{"time":24.6,"midi":51,"velocity":0.7},{"time":24.6,"midi":38,"velocity":0.85},{"time":24.9,"midi":51,"velocity":0.5},{"time":25.2,"midi":51,"velocity":0.7},{"time":25.5,"midi":51,"velocity":0.5},{"time":25.5,"midi":36,"velocity":0.85},{"time":25.8,"midi":51,"velocity":0.7},{"time":25.8,"midi":38,"velocity":0.85},{"time":26.1,"midi":51,"velocity":0.5},{"time":26.4,"midi":51,"velocity":0.7},{"time":26.4,"midi":36,"velocity":0.9},{"time":26.7,"midi":51,"velocity":0.5},{"time":26.849999999999998,"midi":36,"velocity":0.7},{"time":27,"midi":51,"velocity":0.7},{"time":27,"midi":38,"velocity":0.85},{"time":27.299999999999997,"midi":51,"velocity":0.5},{"time":27.599999999999998,"midi":51,"velocity":0.7},{"time":27.9,"midi":51,"velocity":0.5},{"time":27.9,"midi":36,"velocity":0.85},{"time":28.2,"midi":51,"velocity":0.7},{"time":28.2,"midi":38,"velocity":0.85},{"time":28.5,"midi":51,"velocity":0.5},{"time":28.799999999999997,"midi":51,"velocity":0.7},{"time":28.799999999999997,"midi":36,"velocity":0.9},{"time":29.099999999999998,"midi":51,"velocity":0.5},{"time":29.249999999999996,"midi":36,"velocity":0.7},{"time":29.4,"midi":51,"velocity":0.7},{"time":29.4,"midi":38,"velocity":0.85},{"time":29.699999999999996,"midi":51,"velocity":0.5},{"time":29.999999999999996,"midi":51,"velocity":0.7},{"time":30.299999999999997,"midi":51,"velocity":0.5},{"time":30.299999999999997,"midi":36,"velocity":0.85},{"time":30.599999999999998,"midi":51,"velocity":0.7},{"time":30.599999999999998,"midi":38,"velocity":0.85},{"time":30.9,"midi":51,"velocity":0.5},{"time":31.2,"midi":51,"velocity":0.7},{"time":31.2,"midi":36,"velocity":0.9},{"time":31.5,"midi":51,"velocity":0.5},{"time":31.65,"midi":36,"velocity":0.7},{"time":31.8,"midi":51,"velocity":0.7},{"time":31.8,"midi":38,"velocity":0.85},{"time":32.1,"midi":51,"velocity":0.5},{"time":32.4,"midi":51,"velocity":0.7},{"time":32.7,"midi":51,"velocity":0.5},{"time":32.7,"midi":36,"velocity":0.85},{"time":33,"midi":51,"velocity":0.7},{"time":33,"midi":38,"velocity":0.85},{"time":33.3,"midi":51,"velocity":0.5},{"time":33.6,"midi":51,"velocity":0.7},{"time":33.6,"midi":36,"velocity":0.9},{"time":33.9,"midi":51,"velocity":0.5},{"time":34.050000000000004,"midi":36,"velocity":0.7},{"time":34.2,"midi":51,"velocity":0.7},{"time":34.2,"midi":38,"velocity":0.85},{"time":34.5,"midi":51,"velocity":0.5},{"time":34.800000000000004,"midi":51,"velocity":0.7},{"time":35.1,"midi":51,"velocity":0.5},{"time":35.1,"midi":36,"velocity":0.85},{"time":35.4,"midi":51,"velocity":0.7},{"time":35.4,"midi":38,"velocity":0.85},{"time":35.7,"midi":51,"velocity":0.5},{"time":36,"midi":48,"velocity":0.85},{"time":36.15,"midi":48,"velocity":0.7},{"time":36.3,"midi":47,"velocity":0.85},{"time":36.45,"midi":47,"velocity":0.7},{"time":36.6,"midi":45,"velocity":0.9},{"time":36.75,"midi":45,"velocity":0.75},{"time":36.9,"midi":38,"velocity":0.85},{"time":37.05,"midi":38,"velocity":0.7},{"time":37.2,"midi":48,"velocity":0.9},{"time":37.35,"midi":47,"velocity":0.8},{"time":37.5,"midi":45,"velocity":0.9},{"time":37.65,"midi":45,"velocity":0.8},{"time":37.8,"midi":38,"velocity":0.95},{"time":38.1,"midi":36,"velocity":0.9},{"time":38.4,"midi":49,"velocity":0.95},{"time":38.4,"midi":42,"velocity":0.6},{"time":38.4,"midi":36,"velocity":0.9},{"time":38.699999999999996,"midi":42,"velocity":0.6},{"time":39,"midi":42,"velocity":0.6},{"time":39,"midi":38,"velocity":0.85},{"time":39.3,"midi":42,"velocity":0.6},{"time":39.6,"midi":42,"velocity":0.6},{"time":39.6,"midi":36,"velocity":0.85},{"time":39.9,"midi":42,"velocity":0.6},{"time":40.199999999999996,"midi":42,"velocity":0.6},{"time":40.199999999999996,"midi":38,"velocity":0.85},{"time":40.5,"midi":46,"velocity":0.8},{"time":40.8,"midi":42,"velocity":0.6},{"time":40.8,"midi":36,"velocity":0.9},{"time":41.099999999999994,"midi":42,"velocity":0.6},{"time":41.4,"midi":42,"velocity":0.6},{"time":41.4,"midi":38,"velocity":0.85},{"time":41.699999999999996,"midi":42,"velocity":0.6},{"time":42,"midi":42,"velocity":0.6},{"time":42,"midi":36,"velocity":0.85},{"time":42.3,"midi":42,"velocity":0.6},{"time":42.599999999999994,"midi":42,"velocity":0.6},{"time":42.599999999999994,"midi":38,"velocity":0.85},{"time":42.9,"midi":46,"velocity":0.8},{"time":43.199999999999996,"midi":42,"velocity":0.6},{"time":43.199999999999996,"midi":36,"velocity":0.9},{"time":43.49999999999999,"midi":42,"velocity":0.6},{"time":43.8,"midi":42,"velocity":0.6},{"time":43.8,"midi":38,"velocity":0.85},{"time":44.099999999999994,"midi":42,"velocity":0.6},{"time":44.4,"midi":42,"velocity":0.6},{"time":44.4,"midi":36,"velocity":0.85},{"time":44.699999999999996,"midi":42,"velocity":0.6},{"time":44.99999999999999,"midi":42,"velocity":0.6},{"time":44.99999999999999,"midi":38,"velocity":0.85},{"time":45.3,"midi":46,"velocity":0.8},{"time":45.6,"midi":42,"velocity":0.6},{"time":45.6,"midi":36,"velocity":0.9},{"time":45.9,"midi":42,"velocity":0.6},{"time":46.2,"midi":42,"velocity":0.6},{"time":46.2,"midi":38,"velocity":0.85},{"time":46.5,"midi":42,"velocity":0.6},{"time":46.800000000000004,"midi":42,"velocity":0.6},{"time":46.800000000000004,"midi":36,"velocity":0.85},{"time":47.1,"midi":42,"velocity":0.6},{"time":47.4,"midi":42,"velocity":0.6},{"time":47.4,"midi":38,"velocity":0.85},{"time":47.7,"midi":46,"velocity":0.8},{"time":47.7,"midi":47,"velocity":0.8},{"time":47.85,"midi":45,"velocity":0.8},{"time":48,"midi":42,"velocity":0.6},{"time":48,"midi":36,"velocity":0.9},{"time":48.3,"midi":42,"velocity":0.6},{"time":48.6,"midi":42,"velocity":0.6},{"time":48.6,"midi":38,"velocity":0.85},{"time":48.9,"midi":42,"velocity":0.6},{"time":49.2,"midi":42,"velocity":0.6},{"time":49.2,"midi":36,"velocity":0.85},{"time":49.5,"midi":42,"velocity":0.6},{"time":49.8,"midi":42,"velocity":0.6},{"time":49.8,"midi":38,"velocity":0.85},{"time":50.1,"midi":46,"velocity":0.8},{"time":50.4,"midi":42,"velocity":0.6},{"time":50.4,"midi":36,"velocity":0.9},{"time":50.699999999999996,"midi":42,"velocity":0.6},{"time":51,"midi":42,"velocity":0.6},{"time":51,"midi":38,"velocity":0.85},{"time":51.3,"midi":42,"velocity":0.6},{"time":51.6,"midi":42,"velocity":0.6},{"time":51.6,"midi":36,"velocity":0.85},{"time":51.9,"midi":42,"velocity":0.6},{"time":52.199999999999996,"midi":42,"velocity":0.6},{"time":52.199999999999996,"midi":38,"velocity":0.85},{"time":52.5,"midi":46,"velocity":0.8},{"time":52.8,"midi":42,"velocity":0.6},{"time":52.8,"midi":36,"velocity":0.9},{"time":53.099999999999994,"midi":42,"velocity":0.6},{"time":53.4,"midi":42,"velocity":0.6},{"time":53.4,"midi":38,"velocity":0.85},{"time":53.699999999999996,"midi":42,"velocity":0.6},{"time":54,"midi":42,"velocity":0.6},{"time":54,"midi":36,"velocity":0.85},{"time":54.3,"midi":42,"velocity":0.6},{"time":54.599999999999994,"midi":42,"velocity":0.6},{"time":54.599999999999994,"midi":38,"velocity":0.85},{"time":54.9,"midi":46,"velocity":0.8},{"time":55.199999999999996,"midi":42,"velocity":0.6},{"time":55.199999999999996,"midi":36,"velocity":0.9},{"time":55.49999999999999,"midi":42,"velocity":0.6},{"time":55.8,"midi":42,"velocity":0.6},{"time":55.8,"midi":38,"velocity":0.85},{"time":56.099999999999994,"midi":42,"velocity":0.6},{"time":56.4,"midi":42,"velocity":0.6},{"time":56.4,"midi":36,"velocity":0.85},{"time":56.699999999999996,"midi":42,"velocity":0.6},{"time":56.99999999999999,"midi":42,"velocity":0.6},{"time":56.99999999999999,"midi":38,"velocity":0.85},{"time":57.3,"midi":46,"velocity":0.8},{"time":57.3,"midi":47,"velocity":0.8},{"time":57.449999999999996,"midi":45,"velocity":0.8},{"time":57.599999999999994,"midi":49,"velocity":1},{"time":57.599999999999994,"midi":36,"velocity":0.9},{"time":60,"midi":48,"velocity":0.8},{"time":60.3,"midi":47,"velocity":0.85},{"time":60.6,"midi":45,"velocity":0.9},{"time":60.9,"midi":38,"velocity":0.9},{"time":61.2,"midi":49,"velocity":1},{"time":61.2,"midi":36,"velocity":1}]